<?xml version="1.0" encoding="utf-8"?>

<!DOCTYPE svg PUBLIC "-//W3C//DTD SVG 1.1//EN" "http://www.w3.org/Graphics/SVG/1.1/DTD/svg11.dtd">
<svg version="1.1" id="Layer_1" xmlns="http://www.w3.org/2000/svg" xmlns:xlink="http://www.w3.org/1999/xlink" x="0px" y="0px"
	 viewBox="0 0 2652.805 1735.878" enable-background="new 0 0 2652.805 1735.878" xml:space="preserve">
<g>
	<path fill="#020202" d="M118.252,47.061c9.846-27.172,51.552-18.793,50.148,9.387c0.453,9.251-5.086,18.238-13.099,22.637
		c0.182,14.776,0.088-40.374,0.113,893.165c90.853-20.471,183.425-7.268,243.461-37.064c4.309-2.4,9.221-4.211,12.292-8.27
		c8.737-10.306,33.71-35.298,35.887-39.471c39.888-76.506-46.65-137.108-93.287-91.076c-8.232,7.936-10.416,38.753,10.3,52.254
		c6.316,4.581,30.176,6.578,31.956,28.055c0.158,3.471,0.438,7.07-0.513,10.466c-10.313,4.898-37.015,6.252-53.212-17.544
		c-32.945-47.674,18.78-121.695,82.391-89.144c30.051,14.983,49.057,46.45,41.162,90.669c4.724-3.154,9.01-6.897,13.71-10.081
		c52.638-37.65,123.281-57.17,189.977-59.437c10.473-0.287,20.947,0.098,31.42,0.091c-3.055-2.435-30.378-3.283-34.461-3.297
		c-46.528,0.199-82.863,12.391-95.4-7.44c-16.28-24.831,12.603-47.321,13.612-48.662c0.036-1.003-6.205-32.677,23.475-56.147
		c17.164,66.968,39.64,54.033,177.595,115.796c160.765,73.29,252.694,213.728,229.645,397.038
		c5.041-5.293,45.66-96.385,126.993-138.418c38.391-19.851,67.251-20.629,96.087-20.501
		c101.233,8.288,119.657,39.668,182.892,85.334c60.247,43.26,75.746,40.043,107.692,30.56c2.095,22.471-14.229,45.732-44.55,42.007
		c3.847,3.781,36.202,21.714,66.311,21.679c77.957,2,102.698-90.46,64.583-123.839c-35.09-31.546-80.818,10.394-66.191,45.862
		c0.634,2.339,3.343,2.852,5.425,3.177c6.519,0.664,11.575-5.078,18.094-4.618c3.939-0.272,8.768,2.158,8.889,6.572
		c0.551,3.396-1.298,6.414-2.739,9.319c10.872-4.922,21.053-20.946,37.6-7.312c-14.627,4.157-25.883,27.563-51.71,14.276
		c-23.599-11.762-34.026-46.756-7.251-73.721c21.656-22.475,58.997-15.887,77.117,12.013
		c25.748,37.708,8.502,119.024-63.036,133.219c-93.71,19.68-179.93-94.811-192.671-100.772c3.947,13.222,14.84,44.467,1.66,82.942
		c151.801-4.274,288.106,73.165,286.26,219.375c313.145,0.152,843.682-0.063,890.999,0.143c3.833-6.663,10.753-11.568,18.396-12.714
		c22.328-3.725,38.174,21.318,26.078,39.811c-10.577,16.581-35.172,15.525-44.406-1.026c-100.087,0.073-808.353,0.083-893.897-0.015
		c-17.413,95.995-99.726,130.733-160.76,106.432c-38.803-14.735-69.02-56.459-64.772-101.014
		c4.146-48.645,44.982-84.96,95.589-77.162c34.23,5.164,43.374,25.542,47.877,27.187c-15.231-38.873-66.306-81.418-148.838-82.738
		c-192.357,2.74-253.186,199.776-381.064,199.953c-69.416,1.746-118.308-58.175-121.281-82.708
		c-4.693,1.411-9.002,3.765-13.529,5.599c-91.126,39.725-153.331,47.458-162.171,50.745
		c-50.088,16.012-103.821,19.249-155.795,12.33c-0.641,0.158-1.909,0.49-2.55,0.649c73.547,27.539,139.087,35.523,155.705,89.786
		c23.981,79.739-61.409,118.536-100.425,78.06c-41.263-39.573-6.616-118.866,47.183-92.193
		c-19.775,4.27-15.229,15.856-34.703,20.419c9.024,4.933,7.005,9.985,4.55,18.457c-33.487-3.445-29.463,46.817,8.994,55.634
		c26.208,5.868,52.864-9.854,59.965-35.17c5.145-18.276,1.665-47.069-18.079-64.395c-38.911-35.102-146.284-39.008-260.823-113.592
		c-132.215-87.705-172.512-230.809-166.269-295.918c23.379,238.734,238.586,316.596,325.377,268.226
		c43.321,30.078,100.11,18.488,104.364,18.366c-3.924,3.217-37.049,21.126-72.703,30.681c-3.064,0.966-6.731,0.838-9.153,3.222
		c82.528,6.621,197.428-41.237,272.014-136.494c129.151-163.162,90.475-390.5-59.098-487.133
		c-115.227-75.341-275.192-59.05-363.784,8.383c-177.723,134.21-117.24,435.405,121.47,450.77
		c48.702,1.775,95.147-6.327,138.259-34.861c51.62-33.784,86.597-95.91,98.946-149.532
		c43.693-185.608-139.107-293.216-249.233-243.106c-98.491,44.411-79.463,178.328,3.675,195.35
		c65.153,13.444,103.434-55.77,74.785-100.071c-3.325-5.235-16.875-16.897-31.639-17.151c-27.052-0.881-44.296,27.041-19.302,39.509
		c-34.454,33.811-7.726,45.61,12.805,36.823c3.931-1.645,6.761-4.927,9.726-7.855c-15.287,27.661-79.106,3.54-60.313-49.975
		c10-29.171,44.819-37.931,70.612-24.637c36.752,18.498,43.508,67.235,20.6,101.308c-38.782,57.709-138.495,36.322-156.731-51.129
		c-21.791-101.647,94.939-198.11,238.488-122.572c109.33,58.099,109.638,171.218,112.197,175.422
		c6.465-46.383,4.669-57.842,27.232-83.425c13.684,26.209,24.566,80.037,6.384,144.945
		c-32.235,115.262-102.565,165.79-192.497,198.526c-170.972,64.879-374.112-59.374-352.292-288.003
		c-6.242,6.012-57.547,110.698-142.719,144.613c-80.656,32.027-174.658-20.566-173.897-105.141
		c-0.869-42.766,23.853-92.077,75.321-114.49c4.58-2.286,9.598-3.516,14.178-5.803c-2.166-0.407-4.369-0.332-6.55-0.181
		c0.302-48.172-0.13-889.949,0.264-898.311C118.539,73.131,113.718,58.598,118.252,47.061 M291.478,971.759
		c-42.321,3.413-119.991,7.531-159.115,23.603c48.074,0.621,81.915,28.938,78.618,77.275
		c-9.126,79.309-110.097,62.979-104.711,1.079c3.746-29.665,36.574-33.716,37.577-34.023c0.679,1.725,7.765,11.464,1.69,27.217
		c-4.963,13.96-17.127,28.512-8.919,40.814c2.535,3.773,5.788,7.47,10.134,9.108c47.663,5.777,60.718-46.691,44.24-75.419
		c-23.416-42.329-105.727-40.376-119.968,32.952c-14.127,70.802,49.451,119.745,112.868,110.295
		c96.747-15.513,152.976-145.342,205.77-230.844C358.295,965.609,324.657,969.141,291.478,971.759 M1148.99,1072.464
		c-38.394,20.058-68.315,54.494-71.45,60.222c3.796-1.277,51.673-36.266,114.415-24.682c-6.253,1.234-63.165-2.213-118.059,48.519
		c-52.208,47.616-79.637,125.803-95.566,158.836c6.567-2.072,30.216-14.739,63.761-6.776c23.045,5.297,43.78,20.713,54.404,41.984
		c31.493-17.997,116.176-68.893,117.177-69.496c-25.93-15.95-44.383-37.376-47.968-67.888c-3.522-25.55,6.738-57.444,25.172-76.241
		c27.079-27.925,71.631-27.911,96.909-3.245c21.712,20.976,17.555,54.227,0.906,73.88c-26.529,31.526-81.658,2.608-63.685-42.573
		c6.164-14.471,15.104-19.16,22.109-19.083c-0.219,3.539,0.875,7.432-1.237,10.609c-3.482,4.982-16.074,13.427-20.154,23.384
		c-8.03,25.417,24.666,48.56,49.809,35.05c19.598-10.583,28.76-40.792,20.856-61.022c-15.197-40.263-87.371-50.707-114.921,8.323
		c-22.074,47.412-2.159,93.01,40.196,112.996c2.1,1.21,1.068-0.18,36.121-18.645c34.612-17.981,71.329-33.548,110.34-38.332
		C1412.403,1108.636,1265.631,1011.026,1148.99,1072.464 M1374.741,1230.213c-16.079,33.635-68.724,80.484-145.345,57.973
		c-6.079,1.965-79.409,48.307-127.824,75.826c13.013,64.189-49.627,101.434-91.219,67.413c-4.218-3.652-9.138-6.633-12.571-11.077
		c-19.619,9.673-39.343,19.196-59.316,28.108c17.861,47.851,66.624,76.55,110.597,76.173
		c81.682,1.059,146.044-95.925,223.676-149.615c161.095-113.437,332.785-19.467,319.242,78.784
		c-1.373,9.032-2.309,18.517-7.214,26.47c-16.62,29.05-65.519,23.087-69.088-16.517c-1.278-20.911,6.801-33.852,18.449-40.12
		c17.96-10.092,27.578,8.155,18.374,20.622c-5.458,7.816-25.024,12.697-28.93,27.074c-1.943,7.605,2.955,21.552,23.12,24.81
		c50.328,8.118,60.062-77.845,1.283-97.95c-28.566-9.599-64.576-2.767-85.062,23.573c-37.806,46.358-14.382,117.354,42.324,139.663
		c84.441,32.511,164.106-50.783,150.989-149.744C1644.058,1286.061,1498.742,1217.51,1374.741,1230.213 M980.699,1322.187
		c-13.236,7.681-8.206,5.529-16.585,18.147c-28.648,46.074-25.501,30.295-29.677,47.99c-3.154,15.099-2.694,30.756-0.143,45.893
		c0,0,53.971-25.669,53.974-25.67c-9.839-17.607-15.599-45.716,2.301-47.002c-5.079-10.756,2.249-29.972,17.83-36
		c-4.084,18.618,5.684,28.4-4.022,38.038c6.244,1.465,11.332,8.659,8.994,17.295c-1.283,6.882-5.252,12.737-8.345,18.879
		c9.36-3.63,83.076-43.594,87.039-46.972C1077.852,1316.528,1020.665,1299.974,980.699,1322.187 M1002.038,1417.844
		c4.065,16.431,38.481,32.886,66.953,18.268c22.431-11.37,33.738-39.474,29.669-64.531c-0.309-1.796-1.154-3.471-1.026-5.312
		C1085.841,1373.958,1010.351,1414.797,1002.038,1417.844z"/>
	<path fill="#020202" d="M1452.914,1345.473c43.565,5.721,79.482,28.396,87.288,36.559c-6.708-1.675-12.941-4.776-19.566-6.708
		c-92.785-32.07-129.334,30.822-167.235,48.73c-46.843,22.434-68.908-19.994-16.11-53.952
		C1365.569,1352.388,1408.988,1339.403,1452.914,1345.473z"/>
</g>
</svg>
