<?xml version="1.0" encoding="UTF-8" standalone="no"?>
<svg
   version="1.1"
   id="Layer_1"
   x="0px"
   y="0px"
   viewBox="0 0 2652.805 1735.878"
   enable-background="new 0 0 2652.805 1735.878"
   xml:space="preserve"
   sodipodi:docname="Corner-Ornament-4-By-RebeccaRead.svg"
   inkscape:version="1.4.3 (0d15f75, 2025-12-25)"
   xmlns:inkscape="http://www.inkscape.org/namespaces/inkscape"
   xmlns:sodipodi="http://sodipodi.sourceforge.net/DTD/sodipodi-0.dtd"
   xmlns="http://www.w3.org/2000/svg"
   xmlns:svg="http://www.w3.org/2000/svg"><defs
   id="defs2"><rect
     x="694.78143"
     y="402.24188"
     width="58.077704"
     height="124.75951"
     id="rect3" /></defs><sodipodi:namedview
   id="namedview2"
   pagecolor="#ffffff"
   bordercolor="#000000"
   borderopacity="0.25"
   inkscape:showpageshadow="2"
   inkscape:pageopacity="0.0"
   inkscape:pagecheckerboard="0"
   inkscape:deskcolor="#d1d1d1"
   inkscape:zoom="0.46489441"
   inkscape:cx="1327.1831"
   inkscape:cy="867.93903"
   inkscape:window-width="1920"
   inkscape:window-height="1009"
   inkscape:window-x="1912"
   inkscape:window-y="-8"
   inkscape:window-maximized="1"
   inkscape:current-layer="Layer_1" />
<g
   id="g2">
	<path
   fill="#020202"
   d="M118.252,47.061c9.846-27.172,51.552-18.793,50.148,9.387c0.453,9.251-5.086,18.238-13.099,22.637   c0.182,14.776,0.088-40.374,0.113,893.165c90.853-20.471,183.425-7.268,243.461-37.064c4.309-2.4,9.221-4.211,12.292-8.27   c8.737-10.306,33.71-35.298,35.887-39.471c39.888-76.506-46.65-137.108-93.287-91.076c-8.232,7.936-10.416,38.753,10.3,52.254   c6.316,4.581,30.176,6.578,31.956,28.055c0.158,3.471,0.438,7.07-0.513,10.466c-10.313,4.898-37.015,6.252-53.212-17.544   c-32.945-47.674,18.78-121.695,82.391-89.144c30.051,14.983,49.057,46.45,41.162,90.669c4.724-3.154,9.01-6.897,13.71-10.081   c52.638-37.65,123.281-57.17,189.977-59.437c10.473-0.287,20.947,0.098,31.42,0.091c-3.055-2.435-30.378-3.283-34.461-3.297   c-46.528,0.199-82.863,12.391-95.4-7.44c-16.28-24.831,12.603-47.321,13.612-48.662c0.036-1.003-6.205-32.677,23.475-56.147   c17.164,66.968,39.64,54.033,177.595,115.796c160.765,73.29,252.694,213.728,229.645,397.038   c5.041-5.293,45.66-96.385,126.993-138.418c38.391-19.851,67.251-20.629,96.087-20.501   c101.233,8.288,119.657,39.668,182.892,85.334c60.247,43.26,75.746,40.043,107.692,30.56c2.095,22.471-14.229,45.732-44.55,42.007   c3.847,3.781,36.202,21.714,66.311,21.679c77.957,2,102.698-90.46,64.583-123.839c-35.09-31.546-80.818,10.394-66.191,45.862   c0.634,2.339,3.343,2.852,5.425,3.177c6.519,0.664,11.575-5.078,18.094-4.618c3.939-0.272,8.768,2.158,8.889,6.572   c0.551,3.396-1.298,6.414-2.739,9.319c10.872-4.922,21.053-20.946,37.6-7.312c-14.627,4.157-25.883,27.563-51.71,14.276   c-23.599-11.762-34.026-46.756-7.251-73.721c21.656-22.475,58.997-15.887,77.117,12.013   c25.748,37.708,8.502,119.024-63.036,133.219c-93.71,19.68-179.93-94.811-192.671-100.772c3.947,13.222,14.84,44.467,1.66,82.942   c151.801-4.274,288.106,73.165,286.26,219.375c313.145,0.152,843.682-0.063,890.999,0.143c3.833-6.663,10.753-11.568,18.396-12.714   c22.328-3.725,38.174,21.318,26.078,39.811c-10.577,16.581-35.172,15.525-44.406-1.026c-100.087,0.073-808.353,0.083-893.897-0.015   c-17.413,95.995-99.726,130.733-160.76,106.432c-38.803-14.735-69.02-56.459-64.772-101.014   c4.146-48.645,44.982-84.96,95.589-77.162c34.23,5.164,43.374,25.542,47.877,27.187c-15.231-38.873-66.306-81.418-148.838-82.738   c-192.357,2.74-253.186,199.776-381.064,199.953c-69.416,1.746-118.308-58.175-121.281-82.708   c-4.693,1.411-9.002,3.765-13.529,5.599c-91.126,39.725-153.331,47.458-162.171,50.745   c-50.088,16.012-103.821,19.249-155.795,12.33c-0.641,0.158-1.909,0.49-2.55,0.649c73.547,27.539,139.087,35.523,155.705,89.786   c23.981,79.739-61.409,118.536-100.425,78.06c-41.263-39.573-6.616-118.866,47.183-92.193   c-19.775,4.27-15.229,15.856-34.703,20.419c9.024,4.933,7.005,9.985,4.55,18.457c-33.487-3.445-29.463,46.817,8.994,55.634   c26.208,5.868,52.864-9.854,59.965-35.17c5.145-18.276,1.665-47.069-18.079-64.395c-38.911-35.102-146.284-39.008-260.823-113.592   c-132.215-87.705-172.512-230.809-166.269-295.918c23.379,238.734,238.586,316.596,325.377,268.226   c43.321,30.078,100.11,18.488,104.364,18.366c-3.924,3.217-37.049,21.126-72.703,30.681c-3.064,0.966-6.731,0.838-9.153,3.222   c82.528,6.621,197.428-41.237,272.014-136.494c129.151-163.162,90.475-390.5-59.098-487.133   c-115.227-75.341-275.192-59.05-363.784,8.383c-177.723,134.21-117.24,435.405,121.47,450.77   c48.702,1.775,95.147-6.327,138.259-34.861c51.62-33.784,86.597-95.91,98.946-149.532   c43.693-185.608-139.107-293.216-249.233-243.106c-98.491,44.411-79.463,178.328,3.675,195.35   c65.153,13.444,103.434-55.77,74.785-100.071c-3.325-5.235-16.875-16.897-31.639-17.151c-27.052-0.881-44.296,27.041-19.302,39.509   c-34.454,33.811-7.726,45.61,12.805,36.823c3.931-1.645,6.761-4.927,9.726-7.855c-15.287,27.661-79.106,3.54-60.313-49.975   c10-29.171,44.819-37.931,70.612-24.637c36.752,18.498,43.508,67.235,20.6,101.308c-38.782,57.709-138.495,36.322-156.731-51.129   c-21.791-101.647,94.939-198.11,238.488-122.572c109.33,58.099,109.638,171.218,112.197,175.422   c6.465-46.383,4.669-57.842,27.232-83.425c13.684,26.209,24.566,80.037,6.384,144.945   c-32.235,115.262-102.565,165.79-192.497,198.526c-170.972,64.879-374.112-59.374-352.292-288.003   c-6.242,6.012-57.547,110.698-142.719,144.613c-80.656,32.027-174.658-20.566-173.897-105.141   c-0.869-42.766,23.853-92.077,75.321-114.49c4.58-2.286,9.598-3.516,14.178-5.803c-2.166-0.407-4.369-0.332-6.55-0.181   c0.302-48.172-0.13-889.949,0.264-898.311C118.539,73.131,113.718,58.598,118.252,47.061 M291.478,971.759   c-42.321,3.413-119.991,7.531-159.115,23.603c48.074,0.621,81.915,28.938,78.618,77.275   c-9.126,79.309-110.097,62.979-104.711,1.079c3.746-29.665,36.574-33.716,37.577-34.023c0.679,1.725,7.765,11.464,1.69,27.217   c-4.963,13.96-17.127,28.512-8.919,40.814c2.535,3.773,5.788,7.47,10.134,9.108c47.663,5.777,60.718-46.691,44.24-75.419   c-23.416-42.329-105.727-40.376-119.968,32.952c-14.127,70.802,49.451,119.745,112.868,110.295   c96.747-15.513,152.976-145.342,205.77-230.844C358.295,965.609,324.657,969.141,291.478,971.759 M1148.99,1072.464   c-38.394,20.058-68.315,54.494-71.45,60.222c3.796-1.277,51.673-36.266,114.415-24.682c-6.253,1.234-63.165-2.213-118.059,48.519   c-52.208,47.616-79.637,125.803-95.566,158.836c6.567-2.072,30.216-14.739,63.761-6.776c23.045,5.297,43.78,20.713,54.404,41.984   c31.493-17.997,116.176-68.893,117.177-69.496c-25.93-15.95-44.383-37.376-47.968-67.888c-3.522-25.55,6.738-57.444,25.172-76.241   c27.079-27.925,71.631-27.911,96.909-3.245c21.712,20.976,17.555,54.227,0.906,73.88c-26.529,31.526-81.658,2.608-63.685-42.573   c6.164-14.471,15.104-19.16,22.109-19.083c-0.219,3.539,0.875,7.432-1.237,10.609c-3.482,4.982-16.074,13.427-20.154,23.384   c-8.03,25.417,24.666,48.56,49.809,35.05c19.598-10.583,28.76-40.792,20.856-61.022c-15.197-40.263-87.371-50.707-114.921,8.323   c-22.074,47.412-2.159,93.01,40.196,112.996c2.1,1.21,1.068-0.18,36.121-18.645c34.612-17.981,71.329-33.548,110.34-38.332   C1412.403,1108.636,1265.631,1011.026,1148.99,1072.464 M1374.741,1230.213c-16.079,33.635-68.724,80.484-145.345,57.973   c-6.079,1.965-79.409,48.307-127.824,75.826c13.013,64.189-49.627,101.434-91.219,67.413c-4.218-3.652-9.138-6.633-12.571-11.077   c-19.619,9.673-39.343,19.196-59.316,28.108c17.861,47.851,66.624,76.55,110.597,76.173   c81.682,1.059,146.044-95.925,223.676-149.615c161.095-113.437,332.785-19.467,319.242,78.784   c-1.373,9.032-2.309,18.517-7.214,26.47c-16.62,29.05-65.519,23.087-69.088-16.517c-1.278-20.911,6.801-33.852,18.449-40.12   c17.96-10.092,27.578,8.155,18.374,20.622c-5.458,7.816-25.024,12.697-28.93,27.074c-1.943,7.605,2.955,21.552,23.12,24.81   c50.328,8.118,60.062-77.845,1.283-97.95c-28.566-9.599-64.576-2.767-85.062,23.573c-37.806,46.358-14.382,117.354,42.324,139.663   c84.441,32.511,164.106-50.783,150.989-149.744C1644.058,1286.061,1498.742,1217.51,1374.741,1230.213 M980.699,1322.187   c-13.236,7.681-8.206,5.529-16.585,18.147c-28.648,46.074-25.501,30.295-29.677,47.99c-3.154,15.099-2.694,30.756-0.143,45.893   c0,0,53.971-25.669,53.974-25.67c-9.839-17.607-15.599-45.716,2.301-47.002c-5.079-10.756,2.249-29.972,17.83-36   c-4.084,18.618,5.684,28.4-4.022,38.038c6.244,1.465,11.332,8.659,8.994,17.295c-1.283,6.882-5.252,12.737-8.345,18.879   c9.36-3.63,83.076-43.594,87.039-46.972C1077.852,1316.528,1020.665,1299.974,980.699,1322.187 M1002.038,1417.844   c4.065,16.431,38.481,32.886,66.953,18.268c22.431-11.37,33.738-39.474,29.669-64.531c-0.309-1.796-1.154-3.471-1.026-5.312   C1085.841,1373.958,1010.351,1414.797,1002.038,1417.844z"
   id="path1" />
	<path
   fill="#020202"
   d="M1452.914,1345.473c43.565,5.721,79.482,28.396,87.288,36.559c-6.708-1.675-12.941-4.776-19.566-6.708   c-92.785-32.07-129.334,30.822-167.235,48.73c-46.843,22.434-68.908-19.994-16.11-53.952   C1365.569,1352.388,1408.988,1339.403,1452.914,1345.473z"
   id="path2" />
</g>
<g
   inkscape:groupmode="layer"
   id="layer1"
   inkscape:label="Layer 1"><path
     d="m 555.87683,220.36319 c -1.664,0 -2.944,1.344 -3.84,4.032 -0.768,2.56 -1.216,5.248 -1.344,8.064 v 91.584 c 0,1.408 0.064,3.072 0.192,4.992 0.256,1.92 0.576,3.776 0.96,5.568 0.384,1.664 0.896,3.136 1.536,4.416 0.64,1.152 1.472,1.728 2.496,1.728 1.024,0 1.792,0.32 2.304,0.96 0.512,0.512 0.768,1.152 0.768,1.92 0,0.64 -0.32,1.28 -0.96,1.92 -0.512,0.512 -1.216,0.768 -2.112,0.768 h -26.112 c -1.024,0 -1.792,-0.256 -2.304,-0.768 -0.512,-0.64 -0.768,-1.28 -0.768,-1.92 0,-0.768 0.256,-1.408 0.768,-1.92 0.512,-0.64 1.28,-0.96 2.304,-0.96 1.024,0 1.792,-0.576 2.304,-1.728 0.64,-1.28 1.088,-2.752 1.344,-4.416 0.384,-1.792 0.576,-3.648 0.576,-5.568 0.128,-1.92 0.192,-3.584 0.192,-4.992 v -91.584 c 0,-2.816 -0.384,-5.504 -1.152,-8.064 -0.64,-2.688 -1.728,-4.032 -3.264,-4.032 -1.024,0 -1.792,-0.256 -2.304,-0.768 -0.512,-0.64 -0.768,-1.28 -0.768,-1.92 0,-0.768 0.256,-1.408 0.768,-1.92 0.512,-0.64 1.28,-0.96 2.304,-0.96 h 26.112 c 0.896,0 1.6,0.32 2.112,0.96 0.64,0.512 0.96,1.152 0.96,1.92 0,0.64 -0.256,1.28 -0.768,1.92 -0.512,0.512 -1.28,0.768 -2.304,0.768 z m 63.36002,35.52 c 4.224,0 7.744,1.536 10.56,4.608 2.944,3.072 4.416,6.592 4.416,10.56 0,3.584 -0.96,6.528 -2.88,8.832 -1.92,2.176 -4.16,3.264 -6.72,3.264 -1.536,0 -3.008,-0.32 -4.416,-0.96 -1.28,-0.64 -2.304,-1.472 -3.072,-2.496 -0.768,-1.024 -1.216,-2.24 -1.344,-3.648 -0.128,-1.536 0.256,-3.2 1.152,-4.992 1.664,-3.2 2.24,-5.696 1.728,-7.488 -0.384,-1.792 -1.6,-2.688 -3.648,-2.688 -1.92,-0.128 -4.544,0.768 -7.872,2.688 -3.2,1.792 -6.848,4.672 -10.944,8.64 v 55.872 c 0.128,2.432 0.384,4.544 0.768,6.336 0.256,1.664 0.576,3.136 0.96,4.416 0.512,1.28 1.216,1.92 2.112,1.92 1.024,0 1.792,0.32 2.304,0.96 0.512,0.512 0.768,1.152 0.768,1.92 0,0.64 -0.32,1.28 -0.96,1.92 -0.512,0.512 -1.216,0.768 -2.112,0.768 h -26.112 c -1.024,0 -1.792,-0.256 -2.304,-0.768 -0.512,-0.64 -0.768,-1.28 -0.768,-1.92 0,-0.768 0.256,-1.408 0.768,-1.92 0.512,-0.64 1.28,-0.96 2.304,-0.96 0.768,0 1.344,-0.64 1.728,-1.92 0.512,-1.28 0.896,-2.752 1.152,-4.416 0.384,-1.792 0.64,-3.904 0.768,-6.336 v -54.528 c 0,-0.768 -0.192,-1.408 -0.576,-1.92 -0.384,-0.64 -0.832,-1.216 -1.344,-1.728 -0.512,-0.512 -1.088,-1.024 -1.728,-1.536 -1.152,-0.512 -1.984,-1.088 -2.496,-1.728 -0.384,-0.64 -0.512,-1.28 -0.384,-1.92 0.256,-0.64 1.152,-1.344 2.688,-2.112 l 11.52,-6.912 c 1.536,-1.024 3.2,-1.28 4.992,-0.768 1.792,0.384 3.2,1.344 4.224,2.88 0.64,1.024 1.088,2.304 1.344,3.84 0.256,1.408 0.384,3.648 0.384,6.72 l 3.072,-3.072 c 1.536,-1.408 3.328,-2.816 5.376,-4.224 2.048,-1.408 4.288,-2.624 6.72,-3.648 2.56,-1.024 5.184,-1.536 7.872,-1.536 z m 54.91204,84.864 c 1.024,0 1.792,0.32 2.304,0.96 0.512,0.512 0.768,1.152 0.768,1.92 0,0.64 -0.32,1.28 -0.96,1.92 -0.512,0.512 -1.216,0.768 -2.112,0.768 h -26.112 c -1.024,0 -1.792,-0.256 -2.304,-0.768 -0.512,-0.64 -0.768,-1.28 -0.768,-1.92 0,-0.768 0.256,-1.408 0.768,-1.92 0.512,-0.64 1.28,-0.96 2.304,-0.96 1.408,0 2.432,-1.216 3.072,-3.648 0.768,-2.432 1.152,-4.992 1.152,-7.68 v -54.528 c 0,-0.768 -0.256,-1.408 -0.768,-1.92 -0.384,-0.64 -0.832,-1.216 -1.344,-1.728 -0.64,-0.512 -1.344,-1.024 -2.112,-1.536 -1.152,-0.512 -1.984,-1.088 -2.496,-1.728 -0.384,-0.64 -0.512,-1.28 -0.384,-1.92 0.256,-0.64 1.152,-1.344 2.688,-2.112 3.84,-1.792 7.424,-3.328 10.752,-4.608 3.456,-1.28 5.632,-2.048 6.528,-2.304 1.152,-0.384 1.984,-0.64 2.496,-0.768 0.64,-0.256 1.088,-0.32 1.344,-0.192 0.384,0.128 0.576,0.512 0.576,1.152 0.128,0.64 0.192,1.728 0.192,3.264 v 69.696 c 0.128,2.56 0.512,4.992 1.152,7.296 0.768,2.176 1.856,3.264 3.264,3.264 z m -14.208,-89.28 c -2.816,0 -5.248,-0.96 -7.296,-2.88 -2.048,-2.048 -3.072,-4.544 -3.072,-7.488 0,-2.944 1.024,-5.376 3.072,-7.296 2.048,-2.048 4.48,-3.072 7.296,-3.072 2.944,0 5.376,1.024 7.296,3.072 2.048,1.92 2.52245,4.352 2.52245,7.296 0,2.944 -0.47445,5.44 -2.52245,7.488 -1.92,1.92 -4.352,2.88 -7.296,2.88 z m 57.98391,41.664 c 4.352,1.92 8.768,3.84 13.248,5.76 4.608,1.92 8.704,4.032 12.288,6.336 3.584,2.304 6.528,4.928 8.832,7.872 2.304,2.944 3.456,6.4 3.456,10.368 0,4.992 -1.088,9.088 -3.264,12.288 -2.176,3.072 -4.928,5.504 -8.256,7.296 -3.2,1.792 -6.784,3.008 -10.752,3.648 -3.968,0.64 -7.68,0.96 -11.136,0.96 -3.2,0 -6.784,-0.448 -10.752,-1.344 -3.84,-0.896 -7.488,-2.24 -10.944,-4.032 -3.456,-1.92 -6.336,-4.288 -8.64,-7.104 -2.304,-2.816 -3.456,-6.08 -3.456,-9.792 0,-2.56 0.448,-4.8 1.344,-6.72 1.024,-2.048 2.304,-3.712 3.84,-4.992 1.536,-1.28 3.2,-2.048 4.992,-2.304 1.92,-0.256 3.84,0.064 5.76,0.96 1.92,0.896 3.264,2.048 4.032,3.456 0.768,1.28 1.152,2.688 1.152,4.224 0,1.408 -0.384,2.88 -1.152,4.416 -0.768,1.408 -1.792,2.752 -3.072,4.032 -1.664,1.664 -2.304,3.392 -1.92,5.184 0.512,1.792 1.664,3.392 3.456,4.8 1.92,1.408 4.224,2.624 6.912,3.648 2.688,0.896 5.504,1.344 8.448,1.344 4.992,0 9.088,-1.088 12.288,-3.264 3.2,-2.176 5.184,-4.8 5.952,-7.872 0.768,-3.072 0.064,-6.336 -2.112,-9.792 -2.048,-3.456 -5.952,-6.464 -11.712,-9.024 -2.944,-1.28 -6.464,-2.752 -10.56,-4.416 -4.096,-1.792 -8,-3.904 -11.712,-6.336 -3.712,-2.56 -6.912,-5.44 -9.6,-8.64 -2.688,-3.328 -4.032,-7.232 -4.032,-11.712 0,-7.808 2.56,-14.08 7.68,-18.816 5.12,-4.736 13.056,-7.104 23.808,-7.104 4.992,0 9.344,0.704 13.056,2.112 3.84,1.28 7.04,2.944 9.6,4.992 2.56,1.92 4.48,4.096 5.76,6.528 1.28,2.432 1.92,4.736 1.92,6.912 0,3.072 -0.448,5.632 -1.344,7.68 -0.768,1.92 -1.856,3.456 -3.264,4.608 -1.28,1.024 -2.752,1.664 -4.416,1.92 -1.536,0.256 -3.008,0.064 -4.416,-0.576 -3.328,-1.28 -5.312,-3.52 -5.952,-6.72 -0.64,-3.2 0.704,-6.464 4.032,-9.792 1.536,-1.536 2.432,-3.136 2.688,-4.8 0.384,-1.664 0,-3.2 -1.152,-4.608 -1.152,-1.536 -3.072,-2.752 -5.76,-3.648 -2.688,-1.024 -6.272,-1.536 -10.752,-1.536 -5.888,0 -10.24,1.408 -13.056,4.224 -2.688,2.816 -4.096,6.144 -4.224,9.984 -0.128,3.712 0.896,7.424 3.072,11.136 2.304,3.712 5.568,6.464 9.792,8.256 z"
     id="text2"
     style="font-size:192px;font-family:Soria;-inkscape-font-specification:Soria;white-space:pre;inline-size:267.92;fill:#ff00ff"
     transform="matrix(3.9141454,0,0,3.9141454,-1534.8592,-625.9447)"
     aria-label="Iris"
     sodipodi:nodetypes="sccscccscsssscscscccsscscscsscscsscscscscccccccccscsssscscscccscsccccccccccscsscsssscscscsscccccccccccsccsscscscsssccsssccssccsscscscscscccssscccccsssccssccccsscccscccc" /><text
     xml:space="preserve"
     id="text3"
     style="fill:#ff00ff;text-orientation:auto;writing-mode:lr-tb;direction:ltr;font-size:120px;-inkscape-font-specification:Soria;font-family:Soria;font-weight:normal;font-style:normal;font-stretch:normal;font-variant:normal;white-space:pre;shape-inside:url(#rect3)" /></g></svg>
